<svg xmlns="http://www.w3.org/2000/svg" width="25.477" height="25.501" viewBox="0 0 25.477 25.501">
  <defs>
    <clipPath id="clip-path">
      <rect width="25.477" height="25.501" transform="translate(0 0)" fill="#fff"/>
    </clipPath>
  </defs>
  <g transform="translate(0 0)">
    <g transform="translate(0 0)" clip-path="url(#clip-path)">
      <path d="M12.25,21.9l-.966-.33,0,0,0,0-.8-.763,0,0,0-.006L9.944,20l-.03-.047.04-.042c1.589-1.646,3.167-3.3,4.771-4.933l4.8-4.908L29.184.322,29.5,0l.2.408.429.881L30.07,1.2l.779.785-.123-.076.984.331.48.161-.358.354L26.942,7.606,24.5,10.026l-2.456,2.4-4.9,4.773Zm0,0,4.79-4.975,4.78-4.908L24.2,9.572l2.4-2.421,4.792-4.833.122.516-.986-.322-.069-.023L30.4,2.435l-.785-.779-.037-.037-.024-.048L29.123.692l.518.086L19.9,10.442l-4.908,4.8c-1.63,1.6-3.287,3.182-4.933,4.771l.01-.088.491.814-.007-.009.763.8L11.3,21.52Z" transform="translate(-6.711 0)" fill="#fff"/>
      <path d="M12.573,23.542l-.8-.761-.022-.02.022-.022,4.725-4.922,4.763-4.884c1.584-1.632,3.2-3.234,4.8-4.852l4.8-4.844.228-.23.228.23.779.784.226.228-.226.223L27.207,9.311c-1.629,1.61-3.257,3.226-4.895,4.807l-4.887,4.75Zm0,0,4.8-4.974,4.76-4.9c1.578-1.635,3.166-3.235,4.753-4.841l4.762-4.809v.451l-.785-.779h.456L26.47,8.5c-1.618,1.6-3.221,3.211-4.852,4.795l-4.884,4.764-4.922,4.725v-.043Z" transform="translate(-7.952 -2.036)" fill="#fff"/>
      <path d="M70.544,0a4.774,4.774,0,0,1,1.07.232l.062.043a4.619,4.619,0,0,1,1.077.971l.039.046A4.758,4.758,0,0,1,73.229,2.4a4.721,4.721,0,0,1-.887-.8l.039.046a4.61,4.61,0,0,1-1.052-1l.062.043A4.763,4.763,0,0,1,70.544,0" transform="translate(-47.752 0)" fill="#fff"/>
      <path d="M3.294,61.771c-.295.843-.646,1.656-1.015,2.46s-.764,1.593-1.17,2.378L.662,66.18c.787-.456,1.58-.9,2.392-1.314.4-.21.814-.409,1.226-.605s.83-.382,1.259-.548c-.356.292-.728.557-1.1.826s-.75.52-1.131.767c-.76.5-1.538.972-2.323,1.432L0,67.314l.54-1.006c.417-.778.842-1.552,1.3-2.309s.927-1.508,1.455-2.228" transform="translate(0 -41.813)" fill="#fff"/>
    </g>
  </g>
</svg>
