<svg xmlns="http://www.w3.org/2000/svg" xmlns:xlink="http://www.w3.org/1999/xlink" width="50.034" height="50" viewBox="0 0 50.034 50">
  <defs>
    <clipPath id="clip-path">
      <rect id="Rectangle_19" data-name="Rectangle 19" width="50.034" height="50" fill="#fff"/>
    </clipPath>
  </defs>
  <g id="Groupe_29" data-name="Groupe 29" clip-path="url(#clip-path)">
    <path id="Tracé_50" data-name="Tracé 50" d="M26.386,8a12.923,12.923,0,0,1,3.788,8.89A12.95,12.95,0,0,1,17.5,30.12a13.129,13.129,0,0,1-5.092-.935,12.962,12.962,0,0,1-7.2-7.2A12.956,12.956,0,0,1,26.386,8m0,0A12.614,12.614,0,0,0,22.3,5.3,12.158,12.158,0,0,0,8.878,8.273a12.17,12.17,0,0,0-2.511,4.008,12.31,12.31,0,0,0-.784,4.611,12.2,12.2,0,0,0,20.535,8.621,12.163,12.163,0,0,0,2.967-13.421A12.606,12.606,0,0,0,26.386,8" transform="translate(-0.899 -0.888)" fill="#fff"/>
    <path id="Tracé_51" data-name="Tracé 51" d="M27.83,4.771A16.3,16.3,0,0,1,16.575,32.6,16.485,16.485,0,0,1,10.2,31.407,16.31,16.31,0,0,1,1.192,22.4,16.3,16.3,0,0,1,27.83,4.771m0,0a15.99,15.99,0,0,0-5.175-3.422,15.537,15.537,0,0,0-20.3,8.787A15.537,15.537,0,0,0,27.56,27.01,15.5,15.5,0,0,0,31.252,9.946,15.987,15.987,0,0,0,27.83,4.771" transform="translate(0 0)" fill="#fff"/>
    <path id="Tracé_52" data-name="Tracé 52" d="M57.532,51.072l-2.65,2.95c-.911,1.006-1.839,2.034-2.792,3.056l-.263.282-.3-.282c-1.305-1.224-2.62-2.438-3.91-3.678s-2.594-2.463-3.872-3.715-2.575-2.483-3.84-3.748l-3.812-3.775-.544-.541.544-.54,2.876-2.849c.96-.948,1.911-1.9,2.884-2.84l.519-.5.489.5c2.558,2.619,5.083,5.269,7.535,7.9s4.839,5.246,7.136,7.775m0,0-8.039-7.4c-2.606-2.423-5.14-4.831-7.64-7.27h1.008c-.935.972-1.891,1.924-2.839,2.884l-2.849,2.875V41.082l3.776,3.812c1.265,1.265,2.5,2.561,3.747,3.84s2.482,2.577,3.716,3.872,2.454,2.6,3.679,3.909h-.563c.955-.886,1.935-1.765,2.932-2.668Z" transform="translate(-7.498 -7.36)" fill="#fff"/>
    <path id="Tracé_53" data-name="Tracé 53" d="M40.477,36.143l-2.432-1.924-1.105-.892L35.9,32.433h.869c-1.156,1.306-2.357,2.567-3.587,3.8V35.152c1.38,1.383,2.726,2.8,4.012,4.277h-.814c1.206-1.057,2.558-2.052,4.1-3.286m0,0c-.921,1.227-2.031,2.695-3.286,4.1l-.356.4-.458-.4c-1.478-1.285-2.894-2.631-4.278-4.011l-.541-.54.541-.54c1.232-1.23,2.492-2.432,3.8-3.588l.489-.433.38.433L37.8,32.743l.966,1.179c.612.78,1.2,1.529,1.713,2.221" transform="translate(-6.657 -6.567)" fill="#fff"/>
  </g>
</svg>
